<svg id="visual" viewBox="0 0 960 540" width="960" height="540" xmlns="http://www.w3.org/2000/svg" xmlns:xlink="http://www.w3.org/1999/xlink" version="1.1"><rect x="0" y="0" width="960" height="540" fill="#001220"></rect><path d="M0 150L22.8 162.2C45.7 174.3 91.3 198.7 137 206C182.7 213.3 228.3 203.7 274 194.7C319.7 185.7 365.3 177.3 411.2 175.2C457 173 503 177 548.8 173.3C594.7 169.7 640.3 158.3 686 163.7C731.7 169 777.3 191 823 193.2C868.7 195.3 914.3 177.7 937.2 168.8L960 160L960 0L937.2 0C914.3 0 868.7 0 823 0C777.3 0 731.7 0 686 0C640.3 0 594.7 0 548.8 0C503 0 457 0 411.2 0C365.3 0 319.7 0 274 0C228.3 0 182.7 0 137 0C91.3 0 45.7 0 22.8 0L0 0Z" fill="#fa7268"></path><path d="M0 121L22.8 125.8C45.7 130.7 91.3 140.3 137 141C182.7 141.7 228.3 133.3 274 133.3C319.7 133.3 365.3 141.7 411.2 148.2C457 154.7 503 159.3 548.8 161.2C594.7 163 640.3 162 686 157.5C731.7 153 777.3 145 823 143.8C868.7 142.7 914.3 148.3 937.2 151.2L960 154L960 0L937.2 0C914.3 0 868.7 0 823 0C777.3 0 731.7 0 686 0C640.3 0 594.7 0 548.8 0C503 0 457 0 411.2 0C365.3 0 319.7 0 274 0C228.3 0 182.7 0 137 0C91.3 0 45.7 0 22.8 0L0 0Z" fill="#ef5f67"></path><path d="M0 91L22.8 92C45.7 93 91.3 95 137 96.8C182.7 98.7 228.3 100.3 274 97.7C319.7 95 365.3 88 411.2 93C457 98 503 115 548.8 122.8C594.7 130.7 640.3 129.3 686 122.7C731.7 116 777.3 104 823 103.3C868.7 102.7 914.3 113.3 937.2 118.7L960 124L960 0L937.2 0C914.3 0 868.7 0 823 0C777.3 0 731.7 0 686 0C640.3 0 594.7 0 548.8 0C503 0 457 0 411.2 0C365.3 0 319.7 0 274 0C228.3 0 182.7 0 137 0C91.3 0 45.7 0 22.8 0L0 0Z" fill="#e34c67"></path><path d="M0 82L22.8 79.3C45.7 76.7 91.3 71.3 137 72.7C182.7 74 228.3 82 274 81.8C319.7 81.7 365.3 73.3 411.2 68.3C457 63.3 503 61.7 548.8 61.2C594.7 60.7 640.3 61.3 686 68.3C731.7 75.3 777.3 88.7 823 90.5C868.7 92.3 914.3 82.7 937.2 77.8L960 73L960 0L937.2 0C914.3 0 868.7 0 823 0C777.3 0 731.7 0 686 0C640.3 0 594.7 0 548.8 0C503 0 457 0 411.2 0C365.3 0 319.7 0 274 0C228.3 0 182.7 0 137 0C91.3 0 45.7 0 22.8 0L0 0Z" fill="#d53867"></path><path d="M0 61L22.8 55.5C45.7 50 91.3 39 137 39.3C182.7 39.7 228.3 51.3 274 53.5C319.7 55.7 365.3 48.3 411.2 48C457 47.7 503 54.3 548.8 57.2C594.7 60 640.3 59 686 58.3C731.7 57.7 777.3 57.3 823 55.5C868.7 53.7 914.3 50.3 937.2 48.7L960 47L960 0L937.2 0C914.3 0 868.7 0 823 0C777.3 0 731.7 0 686 0C640.3 0 594.7 0 548.8 0C503 0 457 0 411.2 0C365.3 0 319.7 0 274 0C228.3 0 182.7 0 137 0C91.3 0 45.7 0 22.8 0L0 0Z" fill="#c62368"></path></svg>