<svg id="visual" viewBox="0 0 960 540" width="960" height="540" xmlns="http://www.w3.org/2000/svg" xmlns:xlink="http://www.w3.org/1999/xlink" version="1.1"><rect x="0" y="0" width="960" height="540" fill="#070d13"></rect><path d="M0 283L137 283L137 313L274 313L274 340L411 340L411 273L549 273L549 236L686 236L686 252L823 252L823 336L960 336L960 310L960 541L960 541L823 541L823 541L686 541L686 541L549 541L549 541L411 541L411 541L274 541L274 541L137 541L137 541L0 541Z" fill="#9900ff"></path><path d="M0 353L137 353L137 391L274 391L274 374L411 374L411 327L549 327L549 380L686 380L686 393L823 393L823 365L960 365L960 416L960 541L960 541L823 541L823 541L686 541L686 541L549 541L549 541L411 541L411 541L274 541L274 541L137 541L137 541L0 541Z" fill="#7700c6"></path><path d="M0 453L137 453L137 428L274 428L274 413L411 413L411 407L549 407L549 473L686 473L686 421L823 421L823 475L960 475L960 409L960 541L960 541L823 541L823 541L686 541L686 541L549 541L549 541L411 541L411 541L274 541L274 541L137 541L137 541L0 541Z" fill="#560090"></path></svg>