<svg id="visual" viewBox="0 0 900 300" width="900" height="300" xmlns="http://www.w3.org/2000/svg" xmlns:xlink="http://www.w3.org/1999/xlink" version="1.1"><rect x="0" y="0" width="900" height="300" fill="#002233"></rect><path d="M0 227L16.7 228.2C33.3 229.3 66.7 231.7 100 231.2C133.3 230.7 166.7 227.3 200 231C233.3 234.7 266.7 245.3 300 222C333.3 198.7 366.7 141.3 400 128.7C433.3 116 466.7 148 500 173.5C533.3 199 566.7 218 600 210.2C633.3 202.3 666.7 167.7 700 170.3C733.3 173 766.7 213 800 208C833.3 203 866.7 153 883.3 128L900 103L900 301L883.3 301C866.7 301 833.3 301 800 301C766.7 301 733.3 301 700 301C666.7 301 633.3 301 600 301C566.7 301 533.3 301 500 301C466.7 301 433.3 301 400 301C366.7 301 333.3 301 300 301C266.7 301 233.3 301 200 301C166.7 301 133.3 301 100 301C66.7 301 33.3 301 16.7 301L0 301Z" fill="#0066FF" stroke-linecap="round" stroke-linejoin="miter"></path></svg>