<svg id="visual" viewBox="0 0 900 300" width="900" height="300" xmlns="http://www.w3.org/2000/svg" xmlns:xlink="http://www.w3.org/1999/xlink" version="1.1"><rect x="0" y="0" width="900" height="300" fill="#002233"></rect><path d="M0 253L16.7 241.2C33.3 229.3 66.7 205.7 100 204.2C133.3 202.7 166.7 223.3 200 209C233.3 194.7 266.7 145.3 300 127C333.3 108.7 366.7 121.3 400 141.7C433.3 162 466.7 190 500 205.2C533.3 220.3 566.7 222.7 600 217.8C633.3 213 666.7 201 700 207.5C733.3 214 766.7 239 800 226.2C833.3 213.3 866.7 162.7 883.3 137.3L900 112L900 301L883.3 301C866.7 301 833.3 301 800 301C766.7 301 733.3 301 700 301C666.7 301 633.3 301 600 301C566.7 301 533.3 301 500 301C466.7 301 433.3 301 400 301C366.7 301 333.3 301 300 301C266.7 301 233.3 301 200 301C166.7 301 133.3 301 100 301C66.7 301 33.3 301 16.7 301L0 301Z" fill="#0066FF" stroke-linecap="round" stroke-linejoin="miter"></path></svg>